<?xml version="1.0" encoding="UTF-8" standalone="no"?>
<!-- Created with Inkscape (http://www.inkscape.org/) -->

<svg
   xmlns:dc="http://purl.org/dc/elements/1.1/"
   xmlns:cc="http://creativecommons.org/ns#"
   xmlns:rdf="http://www.w3.org/1999/02/22-rdf-syntax-ns#"
   xmlns:svg="http://www.w3.org/2000/svg"
   xmlns="http://www.w3.org/2000/svg"
   xmlns:sodipodi="http://sodipodi.sourceforge.net/DTD/sodipodi-0.dtd"
   xmlns:inkscape="http://www.inkscape.org/namespaces/inkscape"
   width="210mm"
   height="297mm"
   id="svg2"
   version="1.1"
   inkscape:version="0.48.4 r9939"
   sodipodi:docname="fourier0.svg">
  <sodipodi:namedview
     id="base"
     pagecolor="#ffffff"
     bordercolor="#666666"
     borderopacity="1.0"
     inkscape:pageopacity="0.0"
     inkscape:pageshadow="2"
     inkscape:zoom="1.4"
     inkscape:cx="301.42768"
     inkscape:cy="688.43177"
     inkscape:document-units="px"
     inkscape:current-layer="layer1"
     showgrid="true"
     inkscape:window-width="1600"
     inkscape:window-height="816"
     inkscape:window-x="-8"
     inkscape:window-y="-8"
     inkscape:window-maximized="1"
     inkscape:snap-global="false">
    <inkscape:grid
       spacingy="10px"
       spacingx="10px"
       snapvisiblegridlinesonly="true"
       enabled="true"
       visible="true"
       empspacing="5"
       id="grid2987"
       type="xygrid" />
  </sodipodi:namedview>
  <defs
     id="defs4">
    <marker
       style="overflow:visible"
       id="Arrow2Mstart"
       refX="0.0"
       refY="0.0"
       orient="auto"
       inkscape:stockid="Arrow2Mstart">
      <path
         transform="scale(0.6) translate(0,0)"
         d="M 8.7185878,4.0337352 L -2.2072895,0.016013256 L 8.7185884,-4.0017078 C 6.9730900,-1.6296469 6.9831476,1.6157441 8.7185878,4.0337352 z "
         style="fill-rule:evenodd;stroke-width:0.62500000;stroke-linejoin:round"
         id="path3789" />
    </marker>
    <marker
       style="overflow:visible;"
       id="Arrow2Mend"
       refX="0.0"
       refY="0.0"
       orient="auto"
       inkscape:stockid="Arrow2Mend">
      <path
         transform="scale(0.6) rotate(180) translate(0,0)"
         d="M 8.7185878,4.0337352 L -2.2072895,0.016013256 L 8.7185884,-4.0017078 C 6.9730900,-1.6296469 6.9831476,1.6157441 8.7185878,4.0337352 z "
         style="fill-rule:evenodd;stroke-width:0.62500000;stroke-linejoin:round;"
         id="path3792" />
    </marker>
    <marker
       style="overflow:visible;"
       id="Arrow2Lend"
       refX="0.0"
       refY="0.0"
       orient="auto"
       inkscape:stockid="Arrow2Lend">
      <path
         transform="scale(1.1) rotate(180) translate(1,0)"
         d="M 8.7185878,4.0337352 L -2.2072895,0.016013256 L 8.7185884,-4.0017078 C 6.9730900,-1.6296469 6.9831476,1.6157441 8.7185878,4.0337352 z "
         style="fill-rule:evenodd;stroke-width:0.62500000;stroke-linejoin:round;"
         id="path3786" />
    </marker>
    <marker
       style="overflow:visible;"
       id="Arrow1Lend"
       refX="0.0"
       refY="0.0"
       orient="auto"
       inkscape:stockid="Arrow1Lend">
      <path
         transform="scale(0.8) rotate(180) translate(12.5,0)"
         style="fill-rule:evenodd;stroke:#000000;stroke-width:1.0pt;"
         d="M 0.0,0.0 L 5.0,-5.0 L -12.5,0.0 L 5.0,5.0 L 0.0,0.0 z "
         id="path3768" />
    </marker>
    <marker
       style="overflow:visible;"
       id="Arrow1Mend"
       refX="0.0"
       refY="0.0"
       orient="auto"
       inkscape:stockid="Arrow1Mend">
      <path
         transform="scale(0.4) rotate(180) translate(10,0)"
         style="fill-rule:evenodd;stroke:#000000;stroke-width:1.0pt;"
         d="M 0.0,0.0 L 5.0,-5.0 L -12.5,0.0 L 5.0,5.0 L 0.0,0.0 z "
         id="path3774" />
    </marker>
    <marker
       style="overflow:visible"
       id="Arrow1Mstart"
       refX="0.0"
       refY="0.0"
       orient="auto"
       inkscape:stockid="Arrow1Mstart">
      <path
         transform="scale(0.4) translate(10,0)"
         style="fill-rule:evenodd;stroke:#000000;stroke-width:1.0pt"
         d="M 0.0,0.0 L 5.0,-5.0 L -12.5,0.0 L 5.0,5.0 L 0.0,0.0 z "
         id="path3771" />
    </marker>
  </defs>
  <metadata
     id="metadata7">
    <rdf:RDF>
      <cc:Work
         rdf:about="">
        <dc:format>image/svg+xml</dc:format>
        <dc:type
           rdf:resource="http://purl.org/dc/dcmitype/StillImage" />
        <dc:title></dc:title>
      </cc:Work>
    </rdf:RDF>
  </metadata>
  <g
     id="layer1"
     inkscape:groupmode="layer"
     inkscape:label="Ebene 1">
    <path
       sodipodi:nodetypes="cc"
       inkscape:connector-curvature="0"
       id="path2989"
       d="m 350,282.36218 0,140"
       style="fill:none;stroke:#000000;stroke-width:2;stroke-linecap:butt;stroke-linejoin:miter;stroke-miterlimit:4;stroke-opacity:1;stroke-dasharray:none;marker-start:url(#Arrow2Mstart)" />
    <path
       sodipodi:nodetypes="cc"
       inkscape:connector-curvature="0"
       id="path2991"
       d="m 30,352.36218 640,0"
       style="fill:none;stroke:#000000;stroke-width:2;stroke-linecap:butt;stroke-linejoin:miter;stroke-miterlimit:4;stroke-opacity:1;stroke-dasharray:none;marker-start:none;marker-end:url(#Arrow2Mend)" />
    <path
       inkscape:connector-curvature="0"
       id="path5903"
       d="m 400,342.36218 0,20"
       style="fill:none;stroke:#000000;stroke-width:1px;stroke-linecap:butt;stroke-linejoin:miter;stroke-opacity:1" />
    <path
       inkscape:connector-curvature="0"
       id="path5905"
       d="m 450,342.36218 0,20"
       style="fill:none;stroke:#000000;stroke-width:1px;stroke-linecap:butt;stroke-linejoin:miter;stroke-opacity:1" />
    <path
       inkscape:connector-curvature="0"
       id="path5907"
       d="m 500,342.36218 0,20"
       style="fill:none;stroke:#000000;stroke-width:1px;stroke-linecap:butt;stroke-linejoin:miter;stroke-opacity:1" />
    <path
       inkscape:connector-curvature="0"
       id="path5909"
       d="m 550,342.36218 0,20"
       style="fill:none;stroke:#000000;stroke-width:1px;stroke-linecap:butt;stroke-linejoin:miter;stroke-opacity:1" />
    <path
       inkscape:connector-curvature="0"
       id="path5911"
       d="m 600,342.36218 0,20"
       style="fill:none;stroke:#000000;stroke-width:1px;stroke-linecap:butt;stroke-linejoin:miter;stroke-opacity:1" />
    <path
       inkscape:connector-curvature="0"
       id="path5913"
       d="m 650,342.36218 0,20"
       style="fill:none;stroke:#000000;stroke-width:1px;stroke-linecap:butt;stroke-linejoin:miter;stroke-opacity:1" />
    <path
       inkscape:connector-curvature="0"
       id="path5915"
       d="m 300,342.36218 0,20"
       style="fill:none;stroke:#000000;stroke-width:1px;stroke-linecap:butt;stroke-linejoin:miter;stroke-opacity:1" />
    <path
       inkscape:connector-curvature="0"
       id="path5917"
       d="m 250,342.36218 0,20"
       style="fill:none;stroke:#000000;stroke-width:1px;stroke-linecap:butt;stroke-linejoin:miter;stroke-opacity:1" />
    <path
       inkscape:connector-curvature="0"
       id="path5919"
       d="m 200,342.36218 0,20"
       style="fill:none;stroke:#000000;stroke-width:1px;stroke-linecap:butt;stroke-linejoin:miter;stroke-opacity:1" />
    <path
       inkscape:connector-curvature="0"
       id="path5921"
       d="m 150,342.36218 0,20"
       style="fill:none;stroke:#000000;stroke-width:1px;stroke-linecap:butt;stroke-linejoin:miter;stroke-opacity:1" />
    <path
       inkscape:connector-curvature="0"
       id="path5923"
       d="m 100,342.36218 0,20"
       style="fill:none;stroke:#000000;stroke-width:1px;stroke-linecap:butt;stroke-linejoin:miter;stroke-opacity:1" />
    <path
       inkscape:connector-curvature="0"
       id="path5925"
       d="m 50,342.36218 0,20"
       style="fill:none;stroke:#000000;stroke-width:1px;stroke-linecap:butt;stroke-linejoin:miter;stroke-opacity:1" />
    <path
       inkscape:connector-curvature="0"
       id="path5929"
       d="m 340,302.36218 20,0"
       style="fill:none;stroke:#000000;stroke-width:1px;stroke-linecap:butt;stroke-linejoin:miter;stroke-opacity:1" />
    <path
       inkscape:connector-curvature="0"
       id="path5933"
       d="m 340,402.36218 20,0"
       style="fill:none;stroke:#000000;stroke-width:1px;stroke-linecap:butt;stroke-linejoin:miter;stroke-opacity:1" />
    <path
       inkscape:connector-curvature="0"
       id="path5937"
       d="m 350,302.36218 50,50 50,0"
       style="fill:none;stroke:#ff0000;stroke-width:4;stroke-linecap:butt;stroke-linejoin:miter;stroke-opacity:1;stroke-miterlimit:4;stroke-dasharray:none" />
    <g
       id="g3055"
       transform="matrix(0.40251037,0,0,0.40251037,-55.81061,212.62333)">
      <g
         word-spacing="normal"
         letter-spacing="normal"
         font-size-adjust="none"
         font-stretch="normal"
         font-weight="normal"
         font-variant="normal"
         font-style="normal"
         stroke-miterlimit="10.433"
         xml:space="preserve"
         transform="matrix(1.0629921,0,0,-1.0629921,-186.02362,789.27165)"
         id="content"
         style="font-style:normal;font-variant:normal;font-weight:normal;font-stretch:normal;letter-spacing:normal;word-spacing:normal;text-anchor:start;fill:none;stroke:#000000;stroke-width:2.48440814;stroke-linecap:butt;stroke-linejoin:miter;stroke-miterlimit:10.43299961;stroke-opacity:1;stroke-dasharray:none;stroke-dashoffset:0"><path
           id="path3058"
           d="m 1242.4,378.33 0,0.06 0,0.05 0,0.05 0,0.05 0,0.05 0,0.05 0,0.04 0,0.05 0,0.04 0,0.04 0,0.04 0,0.04 0,0.04 -0.1,0.04 0,0.03 0,0.04 0,0.06 0,0.06 0,0.05 0,0.05 0,0.05 0,0.04 -0.1,0.04 0,0.04 0,0.03 0,0.03 -0.1,0.02 0,0.02 -0.1,0.02 0,0.01 0,0.01 0,0 -0.1,0.01 0,0.01 0,0 -0.1,0.01 0,0 0,0.01 -0.1,0 0,0 0,0.01 -0.1,0 0,0 0,0 -0.1,0.01 0,0 -0.1,0 0,0 -0.1,0 0,0 -0.1,0 c -3.1,-3.19 -7.4,-3.19 -9,-3.19 v -1.55 c 1,0 3.9,0 6.5,1.3 v -25.81 c 0,-1.8 -0.2,-2.39 -4.6,-2.39 h -1.7 v -1.55 c 1.8,0.16 6.1,0.16 8.1,0.16 2,0 6.3,0 8.1,-0.16 v 1.55 h -1.6 c -4.5,0 -4.6,0.55 -4.6,2.39 z"
           inkscape:connector-curvature="0"
           style="fill:#000000;stroke-width:0" /></g>    </g>
    <g
       id="g3233"
       transform="matrix(0.40251037,0,0,0.40251037,-5.6907685,212.69515)">
      <g
         word-spacing="normal"
         letter-spacing="normal"
         font-size-adjust="none"
         font-stretch="normal"
         font-weight="normal"
         font-variant="normal"
         font-style="normal"
         stroke-miterlimit="10.433"
         xml:space="preserve"
         transform="matrix(1.0629921,0,0,-1.0629921,-186.02362,789.27165)"
         id="g3235"
         style="font-style:normal;font-variant:normal;font-weight:normal;font-stretch:normal;letter-spacing:normal;word-spacing:normal;text-anchor:start;fill:none;stroke:#000000;stroke-width:2.48440814;stroke-linecap:butt;stroke-linejoin:miter;stroke-miterlimit:10.43299961;stroke-opacity:1;stroke-dasharray:none;stroke-dashoffset:0"><path
           id="path3237"
           d="m 1234.1,350.29 5.2,5.12 c 7.8,6.88 10.8,9.56 10.8,14.55 0,5.68 -4.5,9.67 -10.6,9.67 -5.6,0 -9.3,-4.59 -9.3,-9.03 0,-2.78 2.5,-2.78 2.6,-2.78 0.9,0 2.6,0.59 2.6,2.64 0,1.29 -0.8,2.59 -2.6,2.59 -0.4,0 -0.5,0 -0.6,-0.05 1.1,3.24 3.8,5.08 6.7,5.08 4.5,0 6.7,-4.04 6.7,-8.12 0,-3.99 -2.5,-7.92 -5.3,-11.02 l -9.5,-10.65 c -0.6,-0.55 -0.6,-0.65 -0.6,-1.85 h 18.5 l 1.4,8.67 h -1.3 c -0.2,-1.5 -0.6,-3.68 -1,-4.43 -0.4,-0.39 -3.7,-0.39 -4.8,-0.39 z"
           inkscape:connector-curvature="0"
           style="fill:#000000;stroke-width:0" /></g>    </g>
    <g
       id="g3327"
       transform="matrix(0.40251037,0,0,0.40251037,44.45177,212.3159)">
      <g
         id="g3329"
         transform="matrix(1.0629921,0,0,-1.0629921,-186.02362,789.27165)"
         xml:space="preserve"
         stroke-miterlimit="10.433"
         font-style="normal"
         font-variant="normal"
         font-weight="normal"
         font-stretch="normal"
         font-size-adjust="none"
         letter-spacing="normal"
         word-spacing="normal"
         style="font-style:normal;font-variant:normal;font-weight:normal;font-stretch:normal;letter-spacing:normal;word-spacing:normal;text-anchor:start;fill:none;stroke:#000000;stroke-width:2.48440814;stroke-linecap:butt;stroke-linejoin:miter;stroke-miterlimit:10.43299961;stroke-opacity:1;stroke-dasharray:none;stroke-dashoffset:0"><path
           d="m 1242.2,363.97 0.3,0.14 0.4,0.14 0.4,0.16 0.3,0.16 0.4,0.18 0.3,0.19 0.4,0.21 0.3,0.21 0.3,0.22 0.3,0.23 0.3,0.24 0.3,0.25 0.2,0.26 0.3,0.27 0.2,0.28 0.3,0.28 0.2,0.29 0.2,0.3 0.2,0.31 0.2,0.31 0.2,0.32 0.1,0.32 0.2,0.33 0.1,0.34 0.1,0.34 0.1,0.35 0.1,0.35 0.1,0.35 0.1,0.36 0,0.36 0,0.37 0,0.36 c 0,4.08 -4.3,6.88 -9.1,6.88 -5.1,0 -8.8,-3 -8.8,-6.78 0,-1.64 1,-2.6 2.5,-2.6 1.5,0 2.5,1.1 2.5,2.55 0,2.49 -2.3,2.49 -3,2.49 1.5,2.43 4.8,3.09 6.6,3.09 2,0 4.8,-1.09 4.8,-5.58 0,-0.61 -0.2,-3.48 -1.4,-5.69 -1.5,-2.39 -3.2,-2.53 -4.5,-2.59 -0.4,-0.05 -1.6,-0.14 -1.9,-0.14 -0.4,-0.05 -0.8,-0.09 -0.8,-0.59 0,-0.55 0.4,-0.55 1.2,-0.55 h 2.2 c 4.1,0 6,-3.39 6,-8.28 0,-6.77 -3.5,-8.22 -5.7,-8.22 -2.1,0 -5.9,0.84 -7.6,3.78 1.7,-0.23 3.3,0.86 3.3,2.75 0,1.8 -1.3,2.78 -2.8,2.78 -1.2,0 -2.8,-0.69 -2.8,-2.89 0,-4.53 4.6,-7.81 10.1,-7.81 6,0 10.6,4.53 10.6,9.61 0,4.09 -3.2,7.97 -8.3,9.01 z"
           id="path3331"
           inkscape:connector-curvature="0"
           style="fill:#000000;stroke-width:0" /></g>    </g>
    <g
       id="g3427"
       transform="matrix(0.40251037,0,0,0.40251037,93.813502,212.79636)">
      <g
         word-spacing="normal"
         letter-spacing="normal"
         font-size-adjust="none"
         font-stretch="normal"
         font-weight="normal"
         font-variant="normal"
         font-style="normal"
         stroke-miterlimit="10.433"
         xml:space="preserve"
         transform="matrix(1.0629921,0,0,-1.0629921,-186.02362,789.27165)"
         id="g3429"
         style="font-style:normal;font-variant:normal;font-weight:normal;font-stretch:normal;letter-spacing:normal;word-spacing:normal;text-anchor:start;fill:none;stroke:#000000;stroke-width:2.48440814;stroke-linecap:butt;stroke-linejoin:miter;stroke-miterlimit:10.43299961;stroke-opacity:1;stroke-dasharray:none;stroke-dashoffset:0"><path
           id="path3431"
           d="m 1242.4,354.66 v -4.33 c 0,-1.79 -0.1,-2.34 -3.8,-2.34 h -1.1 v -1.55 c 2.1,0.16 4.7,0.16 6.8,0.16 2.1,0 4.7,0 6.7,-0.16 v 1.55 h -1 c -3.7,0 -3.8,0.55 -3.8,2.34 v 4.33 h 5 v 1.55 h -5 v 22.67 c 0,1 0,1.3 -0.8,1.3 -0.5,0 -0.6,0 -1,-0.61 l -15.3,-23.36 h 1.4 l 12.2,18.58 v -18.58 h -12.2 -1.4 v -1.55 z"
           inkscape:connector-curvature="0"
           style="fill:#000000;stroke-width:0" /></g>    </g>
    <g
       id="g3533"
       transform="matrix(0.40251037,0,0,0.40251037,144.40119,212.24969)">
      <g
         id="g3535"
         transform="matrix(1.0629921,0,0,-1.0629921,-186.02362,789.27165)"
         xml:space="preserve"
         stroke-miterlimit="10.433"
         font-style="normal"
         font-variant="normal"
         font-weight="normal"
         font-stretch="normal"
         font-size-adjust="none"
         letter-spacing="normal"
         word-spacing="normal"
         style="font-style:normal;font-variant:normal;font-weight:normal;font-stretch:normal;letter-spacing:normal;word-spacing:normal;text-anchor:start;fill:none;stroke:#000000;stroke-width:2.48440814;stroke-linecap:butt;stroke-linejoin:miter;stroke-miterlimit:10.43299961;stroke-opacity:1;stroke-dasharray:none;stroke-dashoffset:0"><path
           d="m 1250.1,356.46 0,0.55 -0.1,0.55 0,0.53 -0.1,0.54 -0.1,0.52 -0.1,0.51 -0.2,0.51 -0.1,0.49 -0.2,0.48 -0.2,0.47 -0.2,0.46 -0.3,0.44 -0.2,0.43 -0.3,0.41 -0.3,0.4 -0.3,0.38 -0.4,0.36 -0.3,0.35 -0.3,0.33 -0.4,0.3 -0.4,0.29 -0.4,0.27 -0.4,0.24 -0.4,0.22 -0.5,0.2 -0.4,0.17 -0.5,0.15 -0.4,0.13 -0.5,0.09 -0.5,0.08 -0.5,0.04 -0.5,0.01 c -2.4,0 -4.5,-0.79 -6.3,-2.53 v 9.71 c 1,-0.3 2.6,-0.65 4.2,-0.65 6.2,0 9.6,4.54 9.6,5.19 0,0.3 -0.1,0.55 -0.5,0.55 0,0 -0.1,0 -0.4,-0.16 -1,-0.45 -3.4,-1.43 -6.7,-1.43 -2,0 -4.3,0.34 -6.7,1.39 -0.4,0.14 -0.5,0.14 -0.6,0.14 -0.4,0 -0.4,-0.39 -0.4,-1.19 v -14.75 c 0,-0.89 0,-1.3 0.6,-1.3 0.4,0 0.5,0.16 0.7,0.46 0.5,0.79 2.4,3.48 6.4,3.48 2.6,0 3.9,-2.3 4.3,-3.19 0.8,-1.84 0.9,-3.78 0.9,-6.28 0,-1.73 0,-4.73 -1.3,-6.83 -1.1,-1.93 -3,-3.23 -5.3,-3.23 -3.6,0 -6.4,2.64 -7.3,5.58 0.1,-0.05 0.3,-0.1 0.9,-0.1 1.6,0 2.4,1.25 2.4,2.44 0,1.2 -0.8,2.44 -2.4,2.44 -0.8,0 -2.5,-0.35 -2.5,-2.64 0,-4.28 3.4,-9.11 9,-9.11 5.8,0 10.9,4.78 10.9,11.11 z"
           id="path3537"
           inkscape:connector-curvature="0"
           style="fill:#000000;stroke-width:0" /></g>    </g>
    <g
       id="g3645"
       transform="matrix(0.40251037,0,0,0.40251037,194.28416,212.33124)">
      <g
         word-spacing="normal"
         letter-spacing="normal"
         font-size-adjust="none"
         font-stretch="normal"
         font-weight="normal"
         font-variant="normal"
         font-style="normal"
         stroke-miterlimit="10.433"
         xml:space="preserve"
         transform="matrix(1.0629921,0,0,-1.0629921,-186.02362,789.27165)"
         id="g3647"
         style="font-style:normal;font-variant:normal;font-weight:normal;font-stretch:normal;letter-spacing:normal;word-spacing:normal;text-anchor:start;fill:none;stroke:#000000;stroke-width:2.48440814;stroke-linecap:butt;stroke-linejoin:miter;stroke-miterlimit:10.43299961;stroke-opacity:1;stroke-dasharray:none;stroke-dashoffset:0"><path
           id="path3649"
           d="m 1234.3,362.79 v 1.18 c 0,12.61 6.2,14.41 8.7,14.41 1.2,0 3.3,-0.3 4.4,-2 -0.7,0 -2.7,0 -2.7,-2.24 0,-1.54 1.2,-2.29 2.2,-2.29 0.9,0 2.3,0.45 2.3,2.39 0,3 -2.1,5.39 -6.3,5.39 -6.4,0 -13.1,-6.44 -13.1,-17.44 0,-13.31 5.8,-16.84 10.4,-16.84 5.6,0 10.3,4.69 10.3,11.25 0,6.33 -4.4,11.12 -10,11.12 l 0,-1.15 c 0.8,0 3.1,0 4.6,-3.1 0.9,-1.83 0.9,-4.37 0.9,-6.81 0,-2.39 0,-4.89 -0.8,-6.69 -1.5,-2.98 -3.8,-3.23 -5,-3.23 h 0 c -3.1,0 -4.6,2.98 -4.9,3.73 -0.9,2.35 -0.9,6.33 -0.9,7.24 0,3.87 1.6,8.86 6.1,8.86 l 0,1.15 c -3.4,0 -5.2,-2.54 -6.2,-4.93 z"
           inkscape:connector-curvature="0"
           style="fill:#000000;stroke-width:0" /></g>    </g>
    <g
       id="g3763"
       transform="matrix(0.40251037,0,0,0.40251037,-157.66388,212.5951)">
      <g
         id="g3765"
         transform="matrix(1.0629921,0,0,-1.0629921,-186.02362,789.27165)"
         xml:space="preserve"
         stroke-miterlimit="10.433"
         font-style="normal"
         font-variant="normal"
         font-weight="normal"
         font-stretch="normal"
         font-size-adjust="none"
         letter-spacing="normal"
         word-spacing="normal"
         style="font-style:normal;font-variant:normal;font-weight:normal;font-stretch:normal;letter-spacing:normal;word-spacing:normal;text-anchor:start;fill:none;stroke:#000000;stroke-width:2.48440814;stroke-linecap:butt;stroke-linejoin:miter;stroke-miterlimit:10.43299961;stroke-opacity:1;stroke-dasharray:none;stroke-dashoffset:0"><path
           d="m 1241.1,357.89 0.2,0.01 0.1,0 0.2,0 0.1,0.01 0,0 0.1,0.01 0.1,0.01 0.1,0.01 0,0.01 0.1,0.01 0.1,0.02 0,0.02 0.1,0.02 0.1,0.02 0,0.03 0.1,0.03 0,0.04 0.1,0.04 0,0.04 0.1,0.05 0,0.05 0,0.02 0,0.03 0.1,0.03 0,0.03 0,0.03 0,0.04 0,0.03 0,0.03 0,0.04 0,0.04 0,0.04 0,0.04 0.1,0.04 0,0.04 0,0.05 0,0.04 c 0,1 -1,1 -1.8,1 h -26.9 c -0.9,0 -1.8,0 -1.8,-1 0,-1 0.9,-1 1.8,-1 z"
           id="path3767"
           inkscape:connector-curvature="0"
           style="fill:#000000;stroke-width:0" /><path
           d="m 1261.7,378.33 0,0.06 0,0.05 0,0.05 0,0.05 0,0.05 0,0.05 0,0.04 0,0.05 0,0.04 0,0.04 0,0.04 0,0.04 0,0.04 0,0.04 0,0.03 0,0.04 0,0.06 -0.1,0.06 0,0.05 0,0.05 0,0.05 0,0.04 0,0.04 -0.1,0.04 0,0.03 0,0.03 -0.1,0.02 0,0.02 0,0.02 -0.1,0.01 0,0.01 0,0 0,0.01 -0.1,0.01 0,0 0,0.01 -0.1,0 0,0.01 0,0 -0.1,0 0,0.01 0,0 -0.1,0 0,0 -0.1,0.01 0,0 -0.1,0 0,0 -0.1,0 0,0 -0.1,0 c -3.1,-3.19 -7.4,-3.19 -9,-3.19 v -1.55 c 1,0 3.9,0 6.5,1.3 v -25.81 c 0,-1.8 -0.2,-2.39 -4.6,-2.39 h -1.6 v -1.55 c 1.7,0.16 6,0.16 8,0.16 2,0 6.4,0 8.1,-0.16 v 1.55 h -1.6 c -4.5,0 -4.6,0.55 -4.6,2.39 z"
           id="path3769"
           inkscape:connector-curvature="0"
           style="fill:#000000;stroke-width:0" /></g>    </g>
    <g
       id="g3891"
       transform="matrix(0.40251037,0,0,0.40251037,-207.49839,212.89301)">
      <g
         word-spacing="normal"
         letter-spacing="normal"
         font-size-adjust="none"
         font-stretch="normal"
         font-weight="normal"
         font-variant="normal"
         font-style="normal"
         stroke-miterlimit="10.433"
         xml:space="preserve"
         transform="matrix(1.0629921,0,0,-1.0629921,-186.02362,789.27165)"
         id="g3893"
         style="font-style:normal;font-variant:normal;font-weight:normal;font-stretch:normal;letter-spacing:normal;word-spacing:normal;text-anchor:start;fill:none;stroke:#000000;stroke-width:2.48440814;stroke-linecap:butt;stroke-linejoin:miter;stroke-miterlimit:10.43299961;stroke-opacity:1;stroke-dasharray:none;stroke-dashoffset:0"><path
           id="path3895"
           d="m 1241.1,357.89 0.2,0.01 0.1,0 0.2,0 0.1,0.01 0,0 0.1,0.01 0.1,0.01 0.1,0.01 0,0.01 0.1,0.01 0.1,0.02 0,0.02 0.1,0.02 0.1,0.02 0,0.03 0.1,0.03 0,0.04 0.1,0.04 0,0.04 0.1,0.05 0,0.05 0,0.02 0,0.03 0.1,0.03 0,0.03 0,0.03 0,0.04 0,0.03 0,0.03 0,0.04 0,0.04 0,0.04 0,0.04 0.1,0.04 0,0.04 0,0.05 0,0.04 c 0,1 -1,1 -1.8,1 h -26.9 c -0.9,0 -1.8,0 -1.8,-1 0,-1 0.9,-1 1.8,-1 z"
           inkscape:connector-curvature="0"
           style="fill:#000000;stroke-width:0" /><path
           id="path3897"
           d="m 1253.4,350.29 5.3,5.12 c 7.7,6.88 10.7,9.56 10.7,14.55 0,5.68 -4.5,9.67 -10.6,9.67 -5.6,0 -9.3,-4.59 -9.3,-9.03 0,-2.78 2.5,-2.78 2.7,-2.78 0.8,0 2.6,0.59 2.6,2.64 0,1.29 -0.9,2.59 -2.7,2.59 -0.4,0 -0.5,0 -0.6,-0.05 1.1,3.24 3.8,5.08 6.7,5.08 4.5,0 6.7,-4.04 6.7,-8.12 0,-3.99 -2.5,-7.92 -5.2,-11.02 l -9.6,-10.65 c -0.6,-0.55 -0.6,-0.65 -0.6,-1.85 h 18.5 l 1.4,8.67 h -1.2 c -0.3,-1.5 -0.6,-3.68 -1.1,-4.43 -0.4,-0.39 -3.7,-0.39 -4.8,-0.39 z"
           inkscape:connector-curvature="0"
           style="fill:#000000;stroke-width:0" /></g>    </g>
    <g
       id="g4027"
       transform="matrix(0.40251037,0,0,0.40251037,-257.55427,212.18803)">
      <g
         id="g4029"
         transform="matrix(1.0629921,0,0,-1.0629921,-186.02362,789.27165)"
         xml:space="preserve"
         stroke-miterlimit="10.433"
         font-style="normal"
         font-variant="normal"
         font-weight="normal"
         font-stretch="normal"
         font-size-adjust="none"
         letter-spacing="normal"
         word-spacing="normal"
         style="font-style:normal;font-variant:normal;font-weight:normal;font-stretch:normal;letter-spacing:normal;word-spacing:normal;text-anchor:start;fill:none;stroke:#000000;stroke-width:2.48440814;stroke-linecap:butt;stroke-linejoin:miter;stroke-miterlimit:10.43299961;stroke-opacity:1;stroke-dasharray:none;stroke-dashoffset:0"><path
           d="m 1241.1,357.89 0.2,0.01 0.1,0 0.2,0 0.1,0.01 0,0 0.1,0.01 0.1,0.01 0.1,0.01 0,0.01 0.1,0.01 0.1,0.02 0,0.02 0.1,0.02 0.1,0.02 0,0.03 0.1,0.03 0,0.04 0.1,0.04 0,0.04 0.1,0.05 0,0.05 0,0.02 0,0.03 0.1,0.03 0,0.03 0,0.03 0,0.04 0,0.03 0,0.03 0,0.04 0,0.04 0,0.04 0,0.04 0.1,0.04 0,0.04 0,0.05 0,0.04 c 0,1 -1,1 -1.8,1 h -26.9 c -0.9,0 -1.8,0 -1.8,-1 0,-1 0.9,-1 1.8,-1 z"
           id="path4031"
           inkscape:connector-curvature="0"
           style="fill:#000000;stroke-width:0" /><path
           d="m 1261.5,363.97 0.4,0.14 0.3,0.14 0.4,0.16 0.4,0.16 0.3,0.18 0.3,0.19 0.4,0.21 0.3,0.21 0.3,0.22 0.3,0.23 0.3,0.24 0.3,0.25 0.3,0.26 0.2,0.27 0.3,0.28 0.2,0.28 0.2,0.29 0.2,0.3 0.2,0.31 0.2,0.31 0.2,0.32 0.2,0.32 0.1,0.33 0.1,0.34 0.2,0.34 0.1,0.35 0.1,0.35 0,0.35 0.1,0.36 0,0.36 0.1,0.37 0,0.36 c 0,4.08 -4.4,6.88 -9.2,6.88 -5,0 -8.8,-3 -8.8,-6.78 0,-1.64 1.1,-2.6 2.5,-2.6 1.6,0 2.6,1.1 2.6,2.55 0,2.49 -2.4,2.49 -3.1,2.49 1.5,2.43 4.8,3.09 6.6,3.09 2,0 4.8,-1.09 4.8,-5.58 0,-0.61 -0.1,-3.48 -1.4,-5.69 -1.5,-2.39 -3.2,-2.53 -4.4,-2.59 -0.4,-0.05 -1.6,-0.14 -2,-0.14 -0.4,-0.05 -0.8,-0.09 -0.8,-0.59 0,-0.55 0.4,-0.55 1.3,-0.55 h 2.1 c 4.1,0 6,-3.39 6,-8.28 0,-6.77 -3.5,-8.22 -5.7,-8.22 -2.1,0 -5.8,0.84 -7.6,3.78 1.8,-0.23 3.3,0.86 3.3,2.75 0,1.8 -1.3,2.78 -2.8,2.78 -1.2,0 -2.8,-0.69 -2.8,-2.89 0,-4.53 4.7,-7.81 10.1,-7.81 6.1,0 10.6,4.53 10.6,9.61 0,4.09 -3.1,7.97 -8.3,9.01 z"
           id="path4033"
           inkscape:connector-curvature="0"
           style="fill:#000000;stroke-width:0" /></g>    </g>
    <g
       id="g4171"
       transform="matrix(0.40251037,0,0,0.40251037,-307.84209,212.97493)">
      <g
         word-spacing="normal"
         letter-spacing="normal"
         font-size-adjust="none"
         font-stretch="normal"
         font-weight="normal"
         font-variant="normal"
         font-style="normal"
         stroke-miterlimit="10.433"
         xml:space="preserve"
         transform="matrix(1.0629921,0,0,-1.0629921,-186.02362,789.27165)"
         id="g4173"
         style="font-style:normal;font-variant:normal;font-weight:normal;font-stretch:normal;letter-spacing:normal;word-spacing:normal;text-anchor:start;fill:none;stroke:#000000;stroke-width:2.48440814;stroke-linecap:butt;stroke-linejoin:miter;stroke-miterlimit:10.43299961;stroke-opacity:1;stroke-dasharray:none;stroke-dashoffset:0"><path
           id="path4175"
           d="m 1241.1,357.89 0.2,0.01 0.1,0 0.2,0 0.1,0.01 0,0 0.1,0.01 0.1,0.01 0.1,0.01 0,0.01 0.1,0.01 0.1,0.02 0,0.02 0.1,0.02 0.1,0.02 0,0.03 0.1,0.03 0,0.04 0.1,0.04 0,0.04 0.1,0.05 0,0.05 0,0.02 0,0.03 0.1,0.03 0,0.03 0,0.03 0,0.04 0,0.03 0,0.03 0,0.04 0,0.04 0,0.04 0,0.04 0.1,0.04 0,0.04 0,0.05 0,0.04 c 0,1 -1,1 -1.8,1 h -26.9 c -0.9,0 -1.8,0 -1.8,-1 0,-1 0.9,-1 1.8,-1 z"
           inkscape:connector-curvature="0"
           style="fill:#000000;stroke-width:0" /><path
           id="path4177"
           d="m 1261.7,354.66 v -4.33 c 0,-1.79 -0.1,-2.34 -3.8,-2.34 h -1.1 v -1.55 c 2.1,0.16 4.7,0.16 6.8,0.16 2.1,0 4.7,0 6.7,-0.16 v 1.55 h -1 c -3.7,0 -3.8,0.55 -3.8,2.34 v 4.33 h 5 v 1.55 h -5 v 22.67 c 0,1 0,1.3 -0.8,1.3 -0.4,0 -0.6,0 -1,-0.61 l -15.3,-23.36 h 1.4 l 12.2,18.58 v -18.58 h -12.2 -1.4 v -1.55 z"
           inkscape:connector-curvature="0"
           style="fill:#000000;stroke-width:0" /></g>    </g>
    <g
       id="g4323"
       transform="matrix(0.40251037,0,0,0.40251037,-357.93296,212.26517)">
      <g
         id="g4325"
         transform="matrix(1.0629921,0,0,-1.0629921,-186.02362,789.27165)"
         xml:space="preserve"
         stroke-miterlimit="10.433"
         font-style="normal"
         font-variant="normal"
         font-weight="normal"
         font-stretch="normal"
         font-size-adjust="none"
         letter-spacing="normal"
         word-spacing="normal"
         style="font-style:normal;font-variant:normal;font-weight:normal;font-stretch:normal;letter-spacing:normal;word-spacing:normal;text-anchor:start;fill:none;stroke:#000000;stroke-width:2.48440814;stroke-linecap:butt;stroke-linejoin:miter;stroke-miterlimit:10.43299961;stroke-opacity:1;stroke-dasharray:none;stroke-dashoffset:0"><path
           d="m 1241.1,357.89 0.2,0.01 0.1,0 0.2,0 0.1,0.01 0,0 0.1,0.01 0.1,0.01 0.1,0.01 0,0.01 0.1,0.01 0.1,0.02 0,0.02 0.1,0.02 0.1,0.02 0,0.03 0.1,0.03 0,0.04 0.1,0.04 0,0.04 0.1,0.05 0,0.05 0,0.02 0,0.03 0.1,0.03 0,0.03 0,0.03 0,0.04 0,0.03 0,0.03 0,0.04 0,0.04 0,0.04 0,0.04 0.1,0.04 0,0.04 0,0.05 0,0.04 c 0,1 -1,1 -1.8,1 h -26.9 c -0.9,0 -1.8,0 -1.8,-1 0,-1 0.9,-1 1.8,-1 z"
           id="path4327"
           inkscape:connector-curvature="0"
           style="fill:#000000;stroke-width:0" /><path
           d="m 1269.4,356.46 0,0.55 0,0.55 -0.1,0.53 -0.1,0.54 -0.1,0.52 -0.1,0.51 -0.1,0.51 -0.2,0.49 -0.2,0.48 -0.2,0.47 -0.2,0.46 -0.3,0.44 -0.2,0.43 -0.3,0.41 -0.3,0.4 -0.3,0.38 -0.3,0.36 -0.4,0.35 -0.3,0.33 -0.4,0.3 -0.4,0.29 -0.4,0.27 -0.4,0.24 -0.4,0.22 -0.4,0.2 -0.5,0.17 -0.4,0.15 -0.5,0.13 -0.5,0.09 -0.5,0.08 -0.5,0.04 -0.5,0.01 c -2.3,0 -4.5,-0.79 -6.3,-2.53 v 9.71 c 1,-0.3 2.7,-0.65 4.2,-0.65 6.2,0 9.7,4.54 9.7,5.19 0,0.3 -0.2,0.55 -0.5,0.55 -0.1,0 -0.2,0 -0.4,-0.16 -1,-0.45 -3.5,-1.43 -6.8,-1.43 -2,0 -4.3,0.34 -6.6,1.39 -0.4,0.14 -0.5,0.14 -0.6,0.14 -0.5,0 -0.5,-0.39 -0.5,-1.19 v -14.75 c 0,-0.89 0,-1.3 0.7,-1.3 0.3,0 0.4,0.16 0.6,0.46 0.6,0.79 2.4,3.48 6.4,3.48 2.6,0 3.9,-2.3 4.3,-3.19 0.8,-1.84 0.9,-3.78 0.9,-6.28 0,-1.73 0,-4.73 -1.2,-6.83 -1.2,-1.93 -3.1,-3.23 -5.4,-3.23 -3.6,0 -6.4,2.64 -7.3,5.58 0.2,-0.05 0.3,-0.1 0.9,-0.1 1.6,0 2.5,1.25 2.5,2.44 0,1.2 -0.9,2.44 -2.5,2.44 -0.7,0 -2.5,-0.35 -2.5,-2.64 0,-4.28 3.5,-9.11 9.1,-9.11 5.7,0 10.8,4.78 10.8,11.11 z"
           id="path4329"
           inkscape:connector-curvature="0"
           style="fill:#000000;stroke-width:0" /></g>    </g>
    <g
       id="g4483"
       transform="matrix(0.40251037,0,0,0.40251037,-408.07689,212.40762)">
      <g
         word-spacing="normal"
         letter-spacing="normal"
         font-size-adjust="none"
         font-stretch="normal"
         font-weight="normal"
         font-variant="normal"
         font-style="normal"
         stroke-miterlimit="10.433"
         xml:space="preserve"
         transform="matrix(1.0629921,0,0,-1.0629921,-186.02362,789.27165)"
         id="g4485"
         style="font-style:normal;font-variant:normal;font-weight:normal;font-stretch:normal;letter-spacing:normal;word-spacing:normal;text-anchor:start;fill:none;stroke:#000000;stroke-width:2.48440814;stroke-linecap:butt;stroke-linejoin:miter;stroke-miterlimit:10.43299961;stroke-opacity:1;stroke-dasharray:none;stroke-dashoffset:0"><path
           id="path4487"
           d="m 1241.1,357.89 0.2,0.01 0.1,0 0.2,0 0.1,0.01 0,0 0.1,0.01 0.1,0.01 0.1,0.01 0,0.01 0.1,0.01 0.1,0.02 0,0.02 0.1,0.02 0.1,0.02 0,0.03 0.1,0.03 0,0.04 0.1,0.04 0,0.04 0.1,0.05 0,0.05 0,0.02 0,0.03 0.1,0.03 0,0.03 0,0.03 0,0.04 0,0.03 0,0.03 0,0.04 0,0.04 0,0.04 0,0.04 0.1,0.04 0,0.04 0,0.05 0,0.04 c 0,1 -1,1 -1.8,1 h -26.9 c -0.9,0 -1.8,0 -1.8,-1 0,-1 0.9,-1 1.8,-1 z"
           inkscape:connector-curvature="0"
           style="fill:#000000;stroke-width:0" /><path
           id="path4489"
           d="m 1253.6,362.79 v 1.18 c 0,12.61 6.2,14.41 8.7,14.41 1.2,0 3.3,-0.3 4.4,-2 -0.7,0 -2.7,0 -2.7,-2.24 0,-1.54 1.2,-2.29 2.3,-2.29 0.8,0 2.3,0.45 2.3,2.39 0,3 -2.2,5.39 -6.4,5.39 -6.4,0 -13.1,-6.44 -13.1,-17.44 0,-13.31 5.8,-16.84 10.4,-16.84 5.6,0 10.3,4.69 10.3,11.25 0,6.33 -4.4,11.12 -10,11.12 l 0,-1.15 c 0.8,0 3.1,0 4.6,-3.1 0.9,-1.83 0.9,-4.37 0.9,-6.81 0,-2.39 0,-4.89 -0.8,-6.69 -1.5,-2.98 -3.8,-3.23 -5,-3.23 h 0 c -3.1,0 -4.6,2.98 -4.9,3.73 -0.9,2.35 -0.9,6.33 -0.9,7.24 0,3.87 1.6,8.86 6.1,8.86 l 0,1.15 c -3.3,0 -5.2,-2.54 -6.2,-4.93 z"
           inkscape:connector-curvature="0"
           style="fill:#000000;stroke-width:0" /></g>    </g>
    <g
       id="g4651"
       transform="matrix(0.40251037,0,0,0.40251037,-128.55674,239.40905)">
      <g
         id="g4653"
         transform="matrix(1.0629921,0,0,-1.0629921,-186.02362,789.27165)"
         xml:space="preserve"
         stroke-miterlimit="10.433"
         font-style="normal"
         font-variant="normal"
         font-weight="normal"
         font-stretch="normal"
         font-size-adjust="none"
         letter-spacing="normal"
         word-spacing="normal"
         style="font-style:normal;font-variant:normal;font-weight:normal;font-stretch:normal;letter-spacing:normal;word-spacing:normal;text-anchor:start;fill:none;stroke:#000000;stroke-width:2.48440814;stroke-linecap:butt;stroke-linejoin:miter;stroke-miterlimit:10.43299961;stroke-opacity:1;stroke-dasharray:none;stroke-dashoffset:0"><path
           d="m 1241.1,357.89 0.2,0.01 0.1,0 0.2,0 0.1,0.01 0,0 0.1,0.01 0.1,0.01 0.1,0.01 0,0.01 0.1,0.01 0.1,0.02 0,0.02 0.1,0.02 0.1,0.02 0,0.03 0.1,0.03 0,0.04 0.1,0.04 0,0.04 0.1,0.05 0,0.05 0,0.02 0,0.03 0.1,0.03 0,0.03 0,0.03 0,0.04 0,0.03 0,0.03 0,0.04 0,0.04 0,0.04 0,0.04 0.1,0.04 0,0.04 0,0.05 0,0.04 c 0,1 -1,1 -1.8,1 h -26.9 c -0.9,0 -1.8,0 -1.8,-1 0,-1 0.9,-1 1.8,-1 z"
           id="path4655"
           inkscape:connector-curvature="0"
           style="fill:#000000;stroke-width:0" /><path
           d="m 1261.7,378.33 0,0.06 0,0.05 0,0.05 0,0.05 0,0.05 0,0.05 0,0.04 0,0.05 0,0.04 0,0.04 0,0.04 0,0.04 0,0.04 0,0.04 0,0.03 0,0.04 0,0.06 -0.1,0.06 0,0.05 0,0.05 0,0.05 0,0.04 0,0.04 -0.1,0.04 0,0.03 0,0.03 -0.1,0.02 0,0.02 0,0.02 -0.1,0.01 0,0.01 0,0 0,0.01 -0.1,0.01 0,0 0,0.01 -0.1,0 0,0.01 0,0 -0.1,0 0,0.01 0,0 -0.1,0 0,0 -0.1,0.01 0,0 -0.1,0 0,0 -0.1,0 0,0 -0.1,0 c -3.1,-3.19 -7.4,-3.19 -9,-3.19 v -1.55 c 1,0 3.9,0 6.5,1.3 v -25.81 c 0,-1.8 -0.2,-2.39 -4.6,-2.39 h -1.6 v -1.55 c 1.7,0.16 6,0.16 8,0.16 2,0 6.4,0 8.1,-0.16 v 1.55 h -1.6 c -4.5,0 -4.6,0.55 -4.6,2.39 z"
           id="path4657"
           inkscape:connector-curvature="0"
           style="fill:#000000;stroke-width:0" /></g>    </g>
    <g
       id="g4827"
       transform="matrix(0.40251037,0,0,0.40251037,-120.29893,139.91654)">
      <g
         word-spacing="normal"
         letter-spacing="normal"
         font-size-adjust="none"
         font-stretch="normal"
         font-weight="normal"
         font-variant="normal"
         font-style="normal"
         stroke-miterlimit="10.433"
         xml:space="preserve"
         transform="matrix(1.0629921,0,0,-1.0629921,-186.02362,789.27165)"
         id="g4829"
         style="font-style:normal;font-variant:normal;font-weight:normal;font-stretch:normal;letter-spacing:normal;word-spacing:normal;text-anchor:start;fill:none;stroke:#000000;stroke-width:2.48440814;stroke-linecap:butt;stroke-linejoin:miter;stroke-miterlimit:10.43299961;stroke-opacity:1;stroke-dasharray:none;stroke-dashoffset:0"><path
           id="path4831"
           d="m 1242.4,378.33 0,0.06 0,0.05 0,0.05 0,0.05 0,0.05 0,0.05 0,0.04 0,0.05 0,0.04 0,0.04 0,0.04 0,0.04 0,0.04 -0.1,0.04 0,0.03 0,0.04 0,0.06 0,0.06 0,0.05 0,0.05 0,0.05 0,0.04 -0.1,0.04 0,0.04 0,0.03 0,0.03 -0.1,0.02 0,0.02 -0.1,0.02 0,0.01 0,0.01 0,0 -0.1,0.01 0,0.01 0,0 -0.1,0.01 0,0 0,0.01 -0.1,0 0,0 0,0.01 -0.1,0 0,0 0,0 -0.1,0.01 0,0 -0.1,0 0,0 -0.1,0 0,0 -0.1,0 c -3.1,-3.19 -7.4,-3.19 -9,-3.19 v -1.55 c 1,0 3.9,0 6.5,1.3 v -25.81 c 0,-1.8 -0.2,-2.39 -4.6,-2.39 h -1.7 v -1.55 c 1.8,0.16 6.1,0.16 8.1,0.16 2,0 6.3,0 8.1,-0.16 v 1.55 h -1.6 c -4.5,0 -4.6,0.55 -4.6,2.39 z"
           inkscape:connector-curvature="0"
           style="fill:#000000;stroke-width:0" /></g>    </g>
  </g>
</svg>
